#!OML:ASF X:\2005_08_12_Meinard\c3d\meinard.ASF
:FULLY-SPECIFIED
:DEGREES
3003
root 4.23404 16.5664 -0.216813 485.781 -86.1737 -505.651
lowerback 33.5013 -0.587451 1.51422
upperback 6.56024 -1.02809 0.0262672
thorax -9.88631 -0.853412 -0.332818
lowerneck -10.002 -4.57057 -7.0216
upperneck -2.67307 -5.64874 11.4202
head 1.38074 -2.65361 4.33782
rclavicle -3.57812e-015 1.43125e-014
rhumerus -25.5788 -7.94347 -62.8034
rradius 35.9993
rwrist 22.3879
rhand -1.10294 -10.9747
rfingers 7.12502
rthumb 24.5335 -39.423
lclavicle -3.57812e-015 1.43125e-014
lhumerus -24.9156 37.4326 -1030.9
lradius 35.5916
lwrist 857.808
lhand -12.2817 7.80387
lfingers 7.12502
lthumb 13.7855 37.3271
rfemur -173.977 -178.421 201.775
rtibia 37.2981
rfoot 158.964 167.408
rtoes 2.30213
lfemur -178.63 178.592 -191.973
ltibia 46.1136
lfoot -21.1112 22.367
ltoes 17.2328
3004
root 4.22719 16.5678 -0.206226 486.192 -86.1394 -506.061
lowerback 33.467 -0.584562 1.49368
upperback 6.55757 -1.02514 0.0799444
thorax -9.87472 -0.851466 -0.26657
lowerneck -9.99896 -4.64248 -7.25243
upperneck -2.70444 -5.72036 11.546
head 1.38906 -2.68631 4.4104
rclavicle -1.41634e-015 6.36111e-015
rhumerus -25.1876 -8.25235 -61.5316
rradius 35.8935
rwrist 22.3377
rhand -0.90307 -10.8736
rfingers 7.12502
rthumb 24.7251 -39.2958
lclavicle -1.41634e-015 6.36111e-015
lhumerus -24.7899 37.7817 -1031.82
lradius 35.341
lwrist 857.464
lhand -12.1994 7.75859
lfingers 7.12502
lthumb 13.8648 37.2764
rfemur -173.911 -178.537 201.779
rtibia 37.2224
rfoot 159 167.335
rtoes 2.4266
lfemur -178.744 178.788 -192.039
ltibia 45.8869
lfoot -21.0234 22.3852
ltoes 17.017
3005
root 4.21998 16.5707 -0.195487 486.787 -86.1084 -506.646
lowerback 33.4354 -0.580395 1.45253
upperback 6.54064 -1.02706 0.125371
thorax -9.88009 -0.850795 -0.196059
lowerneck -9.95909 -4.70938 -7.54093
upperneck -2.74172 -5.78199 11.7385
head 1.3935 -2.71371 4.51418
rclavicle 2.60905e-015 8.54774e-015
rhumerus -24.8125 -8.48456 -60.2747
rradius 35.787
rwrist 22.2024
rhand -0.760751 -10.7403
rfingers 7.12502
rthumb 24.8615 -39.1438
lclavicle 2.60905e-015 8.54774e-015
lhumerus -24.6957 38.0849 -1032.79
lradius 35.0793
lwrist 857.174
lhand -12.1205 7.67394
lfingers 7.12502
lthumb 13.9409 37.1866
rfemur -173.853 -178.668 201.779
rtibia 37.1497
rfoot 159.035 167.228
rtoes 2.59212
lfemur -178.878 178.979 -192.131
ltibia 45.6508
lfoot -20.9129 22.4241
ltoes 16.8422
3006
root 4.21204 16.5735 -0.182177 487.079 -86.0731 -506.936
lowerback 33.4077 -0.587697 1.41265
upperback 6.52688 -1.04077 0.195773
thorax -9.88314 -0.855936 -0.0952302
lowerneck -9.95552 -4.76033 -7.81502
upperneck -2.75377 -5.82181 11.8722
head 1.40648 -2.72944 4.59802
rclavicle 2.41026e-015 -2.78299e-015
rhumerus -24.3943 -8.76832 -58.9863
rradius 35.6535
rwrist 22.0721
rhand -0.623151 -10.5444
rfingers 7.12502
rthumb 24.9934 -38.9296
lclavicle 2.41026e-015 -2.78299e-015
lhumerus -24.6527 38.4641 -1033.77
lradius 34.8016
lwrist 856.899
lhand -12.0409 7.59365
lfingers 7.12502
lthumb 14.0176 37.101
rfemur -173.785 -178.803 201.787
rtibia 37.0832
rfoot 159.047 167.143
rtoes 2.63212
lfemur -178.999 179.161 -192.215
ltibia 45.4234
lfoot -20.797 22.461
ltoes 16.9211
3007
root 4.20455 16.5737 -0.165643 487.427 -86.0656 -507.292
lowerback 33.3923 -0.610009 1.39642
upperback 6.51168 -1.06921 0.231469
thorax -9.89355 -0.868315 -0.0380615
lowerneck -9.92528 -4.8082 -8.05481
upperneck -2.79032 -5.86201 12.0173
head 1.40773 -2.74697 4.68051
rclavicle 8.82107e-015 7.95139e-015
rhumerus -23.9946 -9.07441 -57.7283
rradius 35.5384
rwrist 21.9228
rhand -0.524699 -10.3425
rfingers 7.12502
rthumb 25.0877 -38.7145
lclavicle 8.82107e-015 7.95139e-015
lhumerus -24.575 38.7902 -1034.78
lradius 34.5033
lwrist 856.645
lhand -11.903 7.50049
lfingers 7.12502
lthumb 14.1504 36.9986
rfemur -173.719 -178.869 201.73
rtibia 37.0361
rfoot 159.073 167.095
rtoes 2.86653
lfemur -179.085 179.359 -192.342
ltibia 45.2119
lfoot -20.7408 22.4353
ltoes 16.9865
3008
root 4.19655 16.5742 -0.146363 487.718 -86.0363 -507.571
lowerback 33.3421 -0.633688 1.41186
upperback 6.50464 -1.08873 0.270245
thorax -9.88145 -0.877173 0.00137551
lowerneck -9.91605 -4.85296 -8.24462
upperneck -2.83453 -5.90109 12.1167
head 1.40676 -2.76469 4.74061
rclavicle 1.78906e-015 -1.66979e-014
rhumerus -23.5634 -9.43535 -56.4622
rradius 35.3783
rwrist 21.739
rhand -0.519471 -10.1383
rfingers 7.12502
rthumb 25.0927 -38.5096
lclavicle 1.78906e-015 -1.66979e-014
lhumerus -24.4946 39.1761 -1035.79
lradius 34.1974
lwrist 856.401
lhand -11.8059 7.41033
lfingers 7.12502
lthumb 14.2441 36.9019
rfemur -173.683 -178.935 201.679
rtibia 37.0054
rfoot 159.085 167.074
rtoes 2.97514
lfemur -179.161 179.574 -192.477
ltibia 45.0242
lfoot -20.7012 22.3935
ltoes 17.0501
3009
root 4.18856 16.5742 -0.124851 488.138 -86.0278 -507.993
lowerback 33.3133 -0.663364 1.39137
upperback 6.4897 -1.1271 0.314117
thorax -9.88616 -0.894009 0.0729848
lowerneck -9.87129 -4.87082 -8.38911
upperneck -2.88986 -5.90862 12.1597
head 1.39006 -2.76891 4.77865
rclavicle -4.44781e-015 3.57812e-015
rhumerus -23.1491 -9.67658 -55.2206
rradius 35.2946
rwrist 21.4837
rhand -0.545723 -9.98928
rfingers 7.12502
rthumb 25.0676 -38.3641
lclavicle -4.44781e-015 3.57812e-015
lhumerus -24.4909 39.6443 -1036.85
lradius 33.8973
lwrist 856.142
lhand -11.7072 7.33929
lfingers 7.12502
lthumb 14.3391 36.8241
rfemur -173.637 -178.984 201.581
rtibia 36.9875
rfoot 159.085 167.08
rtoes 3.17273
lfemur -179.216 179.8 -192.65
ltibia 44.8589
lfoot -20.6776 22.3091
ltoes 17.015
3010
root 4.18123 16.5749 -0.101364 488.407 -86.0172 -508.26
lowerback 33.2913 -0.699401 1.41041
upperback 6.47504 -1.16172 0.342698
thorax -9.8938 -0.909938 0.105949
lowerneck -9.86967 -4.89136 -8.51675
upperneck -2.93181 -5.92141 12.2286
head 1.38535 -2.7743 4.82064
rclavicle -2.33572e-015 -9.24349e-015
rhumerus -22.7471 -9.96897 -53.9767
rradius 35.2089
rwrist 21.2303
rhand -0.594565 -9.86097
rfingers 7.12502
rthumb 25.0208 -38.2423
lclavicle -2.33572e-015 -9.24349e-015
lhumerus -24.4388 40.0315 -1037.9
lradius 33.6129
lwrist 855.948
lhand -11.6715 7.24274
lfingers 7.12502
lthumb 14.3736 36.7251
rfemur -173.603 -179.001 201.482
rtibia 36.9757
rfoot 159.078 167.096
rtoes 3.32222
lfemur -179.275 180.061 -192.838
ltibia 44.7134
lfoot -20.613 22.2687
ltoes 16.8722
3011
root 4.1734 16.5754 -0.0764001 488.519 -86.0035 -508.38
lowerback 33.2668 -0.735553 1.44151
upperback 6.46503 -1.19221 0.37715
thorax -9.8952 -0.924394 0.137035
lowerneck -9.84622 -4.90106 -8.58615
upperneck -2.97682 -5.92523 12.2353
head 1.37102 -2.77708 4.83489
rclavicle 1.62755e-015 -6.06293e-015
rhumerus -22.3583 -10.304 -52.727
rradius 35.1447
rwrist 20.9993
rhand -0.670976 -9.7527
rfingers 7.12502
rthumb 24.9475 -38.1442
lclavicle 1.62755e-015 -6.06293e-015
lhumerus -24.4027 40.5122 -1038.96
lradius 33.3357
lwrist 855.663
lhand -11.7017 7.19721
lfingers 7.12502
lthumb 14.3445 36.6816
rfemur -173.555 -179.039 201.391
rtibia 36.9662
rfoot 159.085 167.097
rtoes 3.50677
lfemur -179.318 180.305 -193.015
ltibia 44.5846
lfoot -20.5054 22.2786
ltoes 16.8797
3012
root 4.16557 16.5767 -0.0499746 488.834 -86.0077 -508.676
lowerback 33.2123 -0.767513 1.45572
upperback 6.45529 -1.22374 0.402898
thorax -9.88463 -0.938525 0.16767
lowerneck -9.83089 -4.90235 -8.65077
upperneck -3.02344 -5.91896 12.2722
head 1.35764 -2.77445 4.85812
rclavicle 2.17793e-014 1.72943e-014
rhumerus -21.921 -10.6471 -51.4901
rradius 35.0369
rwrist 20.8468
rhand -0.767389 -9.69598
rfingers 7.12502
rthumb 24.8551 -38.1003
lclavicle 2.17793e-014 1.72943e-014
lhumerus -24.3385 40.8812 -1040
lradius 33.092
lwrist 855.49
lhand -11.7921 7.11013
lfingers 7.12502
lthumb 14.2573 36.6007
rfemur -173.541 -179.008 201.244
rtibia 36.959
rfoot 159.087 167.171
rtoes 3.75323
lfemur -179.383 180.527 -193.221
ltibia 44.4704
lfoot -20.431 22.317
ltoes 16.6634
3013
root 4.15809 16.577 -0.0223075 489.166 -86.002 -509.01
lowerback 33.1934 -0.787764 1.47197
upperback 6.436 -1.23888 0.429133
thorax -9.89836 -0.945103 0.192375
lowerneck -9.77656 -4.88942 -8.6726
upperneck -3.07825 -5.89958 12.2929
head 1.33237 -2.7671 4.87093
rclavicle 1.11816e-015 8.00108e-015
rhumerus -21.541 -10.9659 -50.2403
rradius 34.9475
rwrist 20.7027
rhand -0.851514 -9.6354
rfingers 7.12502
rthumb 24.7745 -38.0508
lclavicle 1.11816e-015 8.00108e-015
lhumerus -24.2517 41.2223 -1041.03
lradius 32.8499
lwrist 855.313
lhand -11.9187 7.06415
lfingers 7.12502
lthumb 14.1354 36.5633
rfemur -173.505 -179.01 201.113
rtibia 36.9517
rfoot 159.108 167.207
rtoes 4.09599
lfemur -179.415 180.761 -193.431
ltibia 44.3684
lfoot -20.3086 22.3979
ltoes 16.5653
